<svg preserveAspectRatio="none" width="100%" height="100%" overflow="visible" style="display: block;" viewBox="0 0 18.3333 18.3333" fill="none" xmlns="http://www.w3.org/2000/svg">
<g id="Vector">
<path fill-rule="evenodd" clip-rule="evenodd" d="M9.16667 16.6667C13.3088 16.6667 16.6667 13.3088 16.6667 9.16667C16.6667 5.02453 13.3088 1.66667 9.16667 1.66667C5.02453 1.66667 1.66667 5.02453 1.66667 9.16667C1.66667 13.3088 5.02453 16.6667 9.16667 16.6667ZM9.16667 18.3333C14.2293 18.3333 18.3333 14.2293 18.3333 9.16667C18.3333 4.10406 14.2293 0 9.16667 0C4.10406 0 0 4.10406 0 9.16667C0 14.2293 4.10406 18.3333 9.16667 18.3333Z" fill="var(--fill-0, white)"/>
<path fill-rule="evenodd" clip-rule="evenodd" d="M12.5 5.83328L12.5 11.25C12.5 11.7102 12.1269 12.0833 11.6667 12.0833C11.2064 12.0833 10.8333 11.7102 10.8333 11.25L10.8333 7.49995L7.08334 7.49997C6.6231 7.49998 6.25 7.12688 6.25 6.66664C6.25 6.20641 6.62309 5.83331 7.08333 5.83331L12.5 5.83328Z" fill="var(--fill-0, white)"/>
<path fill-rule="evenodd" clip-rule="evenodd" d="M6.49408 11.8393C6.16864 11.5139 6.16864 10.9862 6.49408 10.6608L11.0774 6.07746C11.4028 5.75203 11.9305 5.75203 12.2559 6.07746C12.5814 6.4029 12.5814 6.93054 12.2559 7.25597L7.67259 11.8393C7.34715 12.1647 6.81952 12.1647 6.49408 11.8393Z" fill="var(--fill-0, white)"/>
</g>
</svg>
