<svg preserveAspectRatio="none" width="100%" height="100%" overflow="visible" style="display: block;" viewBox="0 0 32.296 28" fill="none" xmlns="http://www.w3.org/2000/svg">
<path id="Icon" d="M9.33398 21C11.2668 21.0002 12.834 22.5671 12.834 24.5C12.8338 26.4327 11.2667 27.9998 9.33398 28C7.4011 28 5.83416 26.4328 5.83398 24.5C5.83398 22.567 7.40099 21 9.33398 21ZM3.11133 0C4.52392 0.00015227 5.79826 0.849509 6.3418 2.15332L6.94336 3.59668L31.2295 5.70801C31.9691 5.77254 32.4618 6.50302 32.2441 7.21289L29.5957 15.8496C29.2952 16.8296 28.3892 17.4998 27.3643 17.5H12.7363C13.6626 19.6229 15.7617 21 18.084 21H25.667C27.6 21 29.167 22.567 29.167 24.5C29.1668 26.4328 27.5999 28 25.667 28C23.7341 28 22.1672 26.4328 22.167 24.5C22.167 24.0909 22.2372 23.6979 22.3662 23.333H18.084C14.7872 23.333 11.813 21.3508 10.5449 18.3076L4.18848 3.05078C4.00735 2.6162 3.58212 2.33316 3.11133 2.33301H1.16699C0.52266 2.33301 0 1.81035 0 1.16602C0.000175734 0.521833 0.522768 0 1.16699 0H3.11133Z" fill="var(--fill-0, white)"/>
</svg>
