<svg preserveAspectRatio="none" width="100%" height="100%" overflow="visible" style="display: block;" viewBox="0 0 20.4307 20.4307" fill="none" xmlns="http://www.w3.org/2000/svg">
<path id="Icon" d="M9.45215 1.54982C11.0758 -0.073811 13.5536 -0.40609 15.7852 0.479507L12.2559 4.00783C11.9306 4.33321 11.9306 4.86112 12.2559 5.18654L15.2441 8.17482C15.5695 8.50022 16.0974 8.50015 16.4229 8.17482L19.9512 4.64552C20.8368 6.87706 20.5045 9.35489 18.8809 10.9785C17.1162 12.7428 14.3435 12.9818 11.9736 11.7901L4.02344 19.7402C3.58152 20.182 2.98228 20.4306 2.35742 20.4307C1.05583 20.4305 7.04312e-05 19.3749 0 18.0733C0.000113671 17.4484 0.248692 16.8491 0.69043 16.4072L8.64062 8.45705C7.44888 6.08714 7.68786 3.31447 9.45215 1.54982Z" fill="var(--fill-0, white)"/>
</svg>
