<svg preserveAspectRatio="none" width="100%" height="100%" overflow="visible" style="display: block;" viewBox="0 0 19.7368 19.7333" fill="none" xmlns="http://www.w3.org/2000/svg">
<path id="Icon" d="M18.0112 0C18.9642 0.000338301 19.7368 0.77348 19.7368 1.72656C19.7368 2.18035 19.5575 2.61548 19.2388 2.93848L16.0005 6.21973C15.2118 7.01894 14.8785 8.16184 15.1138 9.25977L16.8989 17.5869C17.073 18.3999 16.4521 19.167 15.6206 19.167C15.0867 19.1668 14.607 18.8414 14.4087 18.3457L11.4038 10.834L7.41846 14.833C6.79957 15.4543 6.55104 16.3544 6.76416 17.2051L7.01319 18.1973C7.15386 18.7593 6.88506 19.3446 6.3667 19.6035C5.89129 19.8407 5.3167 19.7467 4.94092 19.3711L0.369631 14.7988C-0.00906358 14.4198 -0.10767 13.8432 0.124513 13.3604C0.384012 12.821 0.987166 12.5385 1.56787 12.6836L2.54053 12.9268C3.38669 13.1383 4.28198 12.8929 4.90283 12.2803L8.90381 8.33398L1.39111 5.3291C0.895388 5.13067 0.570802 4.64922 0.570802 4.11523C0.571293 3.2841 1.33709 2.66472 2.1499 2.83887L10.4673 4.62109C11.5709 4.85748 12.7197 4.51944 13.519 3.72266L16.7388 0.512695C17.0681 0.184557 17.5141 0.000100013 17.979 0H18.0112Z" fill="var(--fill-0, white)"/>
</svg>
