<svg preserveAspectRatio="none" width="100%" height="100%" overflow="visible" style="display: block;" viewBox="0 0 113.326 31.7241" fill="none" xmlns="http://www.w3.org/2000/svg">
<g id="Group-5">
<path id="Combined-Shape" fill-rule="evenodd" clip-rule="evenodd" d="M10.4643 0.00575208C11.4734 0.00575208 14.4819 -0.273952 15.7526 4.1267C16.6121 7.09155 17.9762 11.977 19.8635 18.7272H20.6297C22.6478 11.5854 24.0306 6.71861 24.7781 4.1267C26.0674 -0.329893 29.2815 0.00575208 30.5708 0.00575208L40.5119 0.00575208V31.7054H30.3839V13.0213H29.7112L24.068 31.7054H16.444L10.8007 13.0026H10.128V31.7054H8.27131e-07L8.27131e-07 0.00575208L10.483 0.00575208H10.4643ZM55.0499 0.00575208V18.7085H55.8534L62.73 3.32489C64.0567 0.266806 66.897 0.00575208 66.897 0.00575208L76.7073 0.00575208V31.7054H66.3738V13.0026H65.5703L58.8432 28.3862C57.5165 31.4257 54.5267 31.7054 54.5267 31.7054H44.7163V0.00575208L55.0499 0.00575208ZM112.436 15.0724C110.997 19.2679 106.456 22.2701 101.448 22.2701H90.6099V31.724H80.781V15.0911H112.454L112.436 15.0724Z" fill="var(--fill-0, white)"/>
<path id="path24" fill-rule="evenodd" clip-rule="evenodd" d="M101.932 0.0054991L80.2559 0.0054991C80.7791 7.07265 86.7027 13.1142 92.8318 13.1142H113.125C114.302 7.24046 110.266 0.0054991 101.932 0.0054991Z" fill="var(--fill-0, white)"/>
</g>
</svg>
