<svg preserveAspectRatio="none" width="100%" height="100%" overflow="visible" style="display: block;" viewBox="0 0 18.878 23.787" fill="none" xmlns="http://www.w3.org/2000/svg">
<g id="Wi-Fi">
<path id="Vector" d="M1.0731 16.98C0.792804 16.98 0.493823 16.8681 0.288274 16.6257C-0.122825 16.1782 -0.0854515 15.4882 0.344334 15.078C1.24128 14.2389 1.72712 13.1014 1.72712 11.8894C1.72712 10.6774 1.24128 9.55854 0.363019 8.71943C-0.0667665 8.3092 -0.0854523 7.60062 0.30696 7.17175C0.718059 6.72422 1.39077 6.70558 1.82055 7.11581C3.14728 8.38379 3.85736 10.0807 3.85736 11.8894C3.85736 13.6981 3.12859 15.4323 1.78318 16.7003C1.57763 16.9054 1.31602 16.9986 1.05441 16.9986L1.0731 16.98Z" fill="var(--fill-0, white)"/>
<path id="Vector_2" d="M5.42597 19.1623C5.18305 19.1623 4.95882 19.0877 4.75327 18.9199C4.28611 18.547 4.21136 17.8384 4.58509 17.3722C5.81839 15.8059 6.47241 13.9412 6.47241 11.9646C6.47241 9.98808 5.78101 8.01152 4.47297 6.42654C4.09924 5.96036 4.1553 5.27043 4.60378 4.87884C5.05225 4.48726 5.74364 4.5432 6.11737 5.00937C7.72439 6.96729 8.62133 9.44733 8.62133 11.9646C8.62133 14.482 7.79914 16.7942 6.26686 18.7521C6.06131 19.0132 5.74364 19.1623 5.42597 19.1623Z" fill="var(--fill-0, white)"/>
<path id="Vector_3" d="M9.88922 21.3994C9.68367 21.3994 9.45944 21.3434 9.27257 21.1943C8.78673 20.84 8.67461 20.15 9.01097 19.6652C10.5993 17.3717 11.4402 14.6679 11.4402 11.8895C11.4402 9.11111 10.5993 6.40731 9.01097 4.11375C8.67461 3.61029 8.78673 2.939 9.27257 2.58471C9.75842 2.23042 10.4311 2.36095 10.7675 2.84576C12.6174 5.51226 13.5891 8.64494 13.5891 11.8895C13.5891 15.134 12.6174 18.2667 10.7675 20.9332C10.5619 21.2316 10.2256 21.3994 9.88922 21.3994Z" fill="var(--fill-0, white)"/>
<path id="Vector_4" d="M14.5801 23.787C14.3745 23.787 14.169 23.7311 13.9821 23.6005C13.4776 23.2649 13.3468 22.575 13.6831 22.0715C15.6639 19.0134 16.7103 15.4892 16.7103 11.853C16.7103 8.21689 15.6825 4.72994 13.7392 1.70915C13.4215 1.20568 13.5523 0.51575 14.0568 0.180107C14.5614 -0.155536 15.2154 -0.00635765 15.5517 0.497107C17.738 3.89083 18.8779 7.82531 18.8779 11.853C18.8779 15.8807 17.7007 19.8712 15.4957 23.2835C15.2901 23.6005 14.9538 23.7684 14.5987 23.7684L14.5801 23.787Z" fill="var(--fill-0, white)"/>
</g>
</svg>
