<svg preserveAspectRatio="none" width="100%" height="100%" overflow="visible" style="display: block;" viewBox="0 0 24.0867 30.0774" fill="none" xmlns="http://www.w3.org/2000/svg">
<path id="Vector" d="M14.4072 5.96699C8.63309 6.45181 5.51247 8.42837 4.98926 13.5935H5.47509C7.15686 10.7033 10.0906 9.08101 13.9213 9.08101C19.1161 9.08101 24.0867 12.2323 24.0867 19.5605C24.0867 26.8888 19.1535 30.0774 12.2395 30.0774C4.27917 30.0774 0 24.9122 0 15.8312C0 9.24884 2.11156 1.62228 14.3885 0.615346L21.7883 0L21.8817 5.35164L14.4072 5.96699ZM12.389 24.9122C16.2197 24.9122 17.752 22.6746 17.752 19.5605C17.752 16.1855 16.0329 14.2089 12.5198 14.2089C9.00681 14.2089 7.28766 16.0549 6.40941 17.7518C6.40941 21.966 7.94169 24.8935 12.389 24.8935V24.9122Z" fill="var(--fill-0, white)"/>
</svg>
