<svg preserveAspectRatio="none" width="100%" height="100%" overflow="visible" style="display: block;" viewBox="0 0 22.9842 22.0406" fill="none" xmlns="http://www.w3.org/2000/svg">
<path id="Vector" d="M1.58833 0.783167C4.18573 0.167822 7.23161 0 9.1563 0C18.406 0 20.8726 4.08366 20.7792 8.54025V17.0059L22.9842 17.0432V21.4252C22.0125 21.6863 20.9661 21.91 19.9009 21.91C17.3035 21.91 15.9768 20.5488 15.6778 18.8892H15.2854C13.6971 21.0896 10.8754 22.0406 8.14724 22.0406C3.92413 22.0406 0 19.7657 0 14.9361C0 9.50989 5.02662 8.09273 9.99718 8.09273H15.0612C14.9677 5.50082 11.9406 4.58712 8.53965 4.58712C6.52153 4.58712 3.99887 4.94141 2.20499 5.63135L1.58833 0.76452V0.783167ZM6.16648 14.9548C6.16648 16.8381 7.43715 17.584 9.51133 17.584C12.8562 17.584 15.0612 15.7006 15.0612 12.1018L11.137 12.0645C7.47453 12.0645 6.16648 13.0341 6.16648 14.9548Z" fill="var(--fill-0, white)"/>
</svg>
