<svg preserveAspectRatio="none" width="100%" height="100%" overflow="visible" style="display: block;" viewBox="0 0 89.9702 39.6562" fill="none" xmlns="http://www.w3.org/2000/svg">
<g id="Logo">
<path fill-rule="evenodd" clip-rule="evenodd" d="M73.3912 0.275562V13.7287H70.1983V8.05933L70.3367 4.55335L64.526 13.7287H60.8548V0.275562H64.0477V5.94489L63.9093 9.45086L69.72 0.274966L73.3912 0.275562ZM43.8946 7.50641L43.8462 7.98358H33.6934C33.8111 8.86752 34.25 9.67722 34.9264 10.2584C35.6028 10.8395 36.4694 11.1514 37.361 11.1347C38.0554 11.1832 38.749 11.0282 39.3567 10.6885C39.9643 10.3489 40.4598 9.83938 40.7822 9.22242L43.4019 10.6462C42.6076 11.9506 41.4086 12.9596 39.9876 13.5194C38.5667 14.0792 37.0017 14.1592 35.531 13.7471C34.0604 13.335 32.7649 12.4535 31.8417 11.2368C30.9186 10.0201 30.4185 8.53503 30.4176 7.00777C30.4176 3.01748 33.221 0 37.1755 0C41.13 0 43.5224 2.5594 43.8981 6.08684C43.9507 6.55864 43.9495 7.03489 43.8946 7.50641ZM40.6349 5.46653C40.4764 4.69761 40.0521 4.00909 39.4365 3.52186C38.8209 3.03463 38.0533 2.77981 37.2685 2.80215C36.4859 2.78886 35.7229 3.04703 35.1092 3.53277C34.4955 4.01851 34.0689 4.70183 33.9021 5.46653H40.6349ZM48.2529 0.277353C48.2529 0.277353 47.0701 8.49594 46.9216 9.25403C46.7295 10.2382 46.439 10.5871 45.1919 10.5871H44.7415V13.8473H45.193C47.867 13.8473 49.5472 12.4797 50.053 9.89224C50.1782 9.25105 50.5737 5.90433 50.9811 3.39623H54.317V13.7287H57.5051V0.275562L48.2529 0.277353ZM29.4329 10.5931V16.7426H26.24V13.7292L16.0167 13.7364V16.7437H12.8239V10.5943H15.5014C15.8259 8.77746 17.2711 0.275562 17.2711 0.275562H26.9259V10.5943L29.4329 10.5931ZM18.7414 10.5931H23.7373V3.39682H19.9987L18.7414 10.5931Z" fill="black"/>
<path d="M7.44797 32.9389L10.9605 25.9252L14.915 25.9234V39.3765H11.7299V33.7L11.9202 30.2942L9.05005 36.0471H5.86497L2.99542 30.2942L3.18509 33.6875V39.3765H0V25.9252H3.95809L7.44797 32.9389Z" fill="black"/>
<path d="M64.7544 34.9042C64.9023 34.1456 66.0857 25.9252 66.0857 25.9252L75.3355 25.9234V39.3765H72.1475V29.0464H68.8127C68.4053 31.5545 68.0099 34.9013 67.8846 35.5425C67.3788 38.1299 65.698 39.4976 63.0247 39.4976H62.5732V36.2373H63.0247C64.2718 36.2373 64.5617 35.8884 64.7544 34.9042Z" fill="black"/>
<path d="M51.1826 35.0987L56.9933 25.9222L60.6675 25.9234V39.3765H57.4746V33.7072L57.61 30.2012L51.7993 39.3765H48.1281V25.9234H51.3204V31.5927L51.1826 35.0987Z" fill="black"/>
<path fill-rule="evenodd" clip-rule="evenodd" d="M30.5887 32.6538C30.5887 36.6435 27.6577 39.6532 23.7754 39.6544C19.893 39.6556 16.9573 36.6417 16.9573 32.6502C16.9354 31.7401 17.0954 30.8348 17.4279 29.9873C17.7604 29.1398 18.2587 28.3672 18.8936 27.7148C19.5286 27.0624 20.2874 26.5433 21.1256 26.188C21.9637 25.8327 22.8644 25.6482 23.7748 25.6454C24.6849 25.6493 25.5852 25.8347 26.4228 26.1907C27.2604 26.5467 28.0186 27.0662 28.653 27.7188C29.2874 28.3715 29.7853 29.1441 30.1174 29.9914C30.4496 30.8388 30.6106 31.7439 30.5887 32.6538ZM21.2213 35.4572C20.5231 34.6931 20.1475 33.6885 20.1734 32.6538L20.1722 32.649C20.1451 31.5988 20.533 30.5802 21.2518 29.8141C21.5806 29.4824 21.9728 29.2201 22.405 29.043C22.8372 28.8658 23.3006 28.7773 23.7676 28.7828H23.7784C24.2537 28.7781 24.725 28.871 25.1631 29.0557C25.6011 29.2403 25.9967 29.5129 26.3252 29.8564C27.0222 30.6213 27.3975 31.6253 27.3732 32.6598C27.372 34.9031 25.8624 36.5308 23.7748 36.5308C23.2984 36.5356 22.8261 36.4428 22.387 36.2582C21.9478 36.0735 21.5512 35.8009 21.2213 35.4572Z" fill="black"/>
<path fill-rule="evenodd" clip-rule="evenodd" d="M45.9254 32.6556C45.9254 36.6453 42.9938 39.655 39.1115 39.6562C35.2292 39.6574 32.2946 36.6435 32.2946 32.652C32.2672 31.1836 32.7088 29.7447 33.5554 28.5446C34.402 27.3445 35.6093 26.4457 37.0018 25.9789L32.6793 22.8504V19.734H45.6964V22.789H40.302L37.1002 22.7013C37.1002 22.7013 39.495 24.3601 40.7339 25.1754C40.8393 25.2449 40.956 25.3197 41.0816 25.4003C42.7281 26.4562 45.9254 28.5066 45.9254 32.6556ZM41.6625 29.8523C42.3597 30.6169 42.7351 31.6211 42.7105 32.6556C42.7099 34.8989 41.1955 36.5236 39.1097 36.5278C38.6334 36.5326 38.1611 36.4398 37.7219 36.2552C37.2828 36.0705 36.8861 35.7979 36.5563 35.4542C35.8583 34.69 35.4828 33.6855 35.5083 32.6508C35.4816 31.6007 35.8694 30.5822 36.5879 29.8159C36.9162 29.4831 37.3082 29.2197 37.7404 29.0415C38.1726 28.8634 38.6362 28.7739 39.1037 28.7786H39.1157C39.591 28.774 40.0623 28.8668 40.5004 29.0515C40.9384 29.2361 41.334 29.5087 41.6625 29.8523Z" fill="black"/>
<path fill-rule="evenodd" clip-rule="evenodd" d="M89.9702 34.5667C89.9702 37.5352 87.9095 39.3795 84.8896 39.3795H78.6453V25.9234H81.8304V29.9387H84.9797C88.0335 29.9381 89.9702 31.6267 89.9702 34.5667ZM84.7923 36.2439H81.8316L81.8298 32.8894H84.8156C86.0449 32.8894 86.7607 33.3737 86.7607 34.5667C86.7607 35.7423 86.0234 36.2439 84.7923 36.2439Z" fill="black"/>
</g>
</svg>
