<svg preserveAspectRatio="none" width="100%" height="100%" overflow="visible" style="display: block;" viewBox="0 0 64.9785 64.9785" fill="none" xmlns="http://www.w3.org/2000/svg">
<path id="Logo" fill-rule="evenodd" clip-rule="evenodd" d="M38.4754 44.8676V32.2862L32.4892 39.1698L26.499 32.2902V44.8676H18.5595V20.1108H26.0767L32.4892 28.0707L38.8937 20.1108H46.4149V44.8676H38.4754ZM20.8256 0H64.9785V8.12231H18.5351C14.9126 8.12231 13.6008 8.5 12.2809 9.20664C10.9529 9.91328 9.91328 10.9529 9.20664 12.2769C8.5 13.6008 8.12231 14.9166 8.12231 18.531V36.5504C8.12231 38.7046 7.26657 40.7705 5.74334 42.2937C4.22011 43.817 2.15417 44.6727 0 44.6727L0 20.8256C0 13.5846 0.755375 10.957 2.16866 8.30912C3.55355 5.69295 5.69295 3.55355 8.30912 2.16866C10.957 0.755375 13.5846 0 20.8256 0ZM44.1529 64.9785H0V56.8562H46.4434C50.0659 56.8562 51.3777 56.4785 52.6975 55.7718C54.0255 55.0652 55.0652 54.0255 55.7718 52.7016C56.4785 51.3777 56.8562 50.0619 56.8562 46.4474V28.4281C56.8562 26.2739 57.7119 24.208 59.2351 22.6847C60.7584 21.1615 62.8243 20.3058 64.9785 20.3058V44.1529C64.9785 51.3939 64.2231 54.0215 62.8098 56.6693C61.4249 59.2855 59.2855 61.4249 56.6693 62.8098C54.0215 64.2231 51.3939 64.9785 44.1529 64.9785Z" fill="var(--fill-0, white)"/>
</svg>
