<svg preserveAspectRatio="none" width="100%" height="100%" overflow="visible" style="display: block;" viewBox="0 0 62.4793 84.9718" fill="none" xmlns="http://www.w3.org/2000/svg">
<g id="Logo">
<path id="Vector" fill-rule="evenodd" clip-rule="evenodd" d="M22.7778 0.0640254L22.6251 0.120036L22.614 3.41102C22.603 6.62902 22.6008 6.7041 22.5158 6.79687C22.4679 6.84907 22.4288 6.90938 22.4288 6.93093C22.4288 6.99452 22.3097 7.09679 22.2356 7.09679C22.1979 7.09679 22.167 7.11674 22.167 7.14114C22.167 7.17032 21.0327 7.18548 18.8513 7.18548C16.6699 7.18548 15.5356 7.20065 15.5356 7.22983C15.5356 7.25422 15.4655 7.27418 15.3798 7.27418C15.1959 7.27418 15.0993 7.35711 15.0993 7.51494C15.0993 7.57764 15.0797 7.62895 15.0557 7.62895C14.9903 7.62895 15.0005 8.14826 15.0666 8.17961C15.1102 8.20027 15.1102 8.21065 15.0666 8.23132C14.999 8.26338 14.9885 9.04806 15.0557 9.04806C15.0838 9.04806 15.0993 9.53587 15.0993 10.4228C15.0993 11.3098 15.0838 11.7976 15.0557 11.7976C15.0317 11.7976 15.012 11.8973 15.012 12.0193C15.012 12.1413 15.0317 12.241 15.0557 12.241C15.0811 12.241 15.0993 12.3888 15.0993 12.5958C15.0993 12.8028 15.0811 12.9506 15.0557 12.9506C15.0317 12.9506 15.012 12.9905 15.012 13.0393C15.012 13.0881 15.0317 13.128 15.0557 13.128C15.0797 13.128 15.0993 13.2278 15.0993 13.3497C15.0993 13.4717 15.0797 13.5714 15.0557 13.5714C15.0317 13.5714 15.012 13.6712 15.012 13.7932C15.012 13.9151 14.9924 14.0149 14.9684 14.0149C14.9444 14.0149 14.9248 14.0463 14.9248 14.0846C14.9248 14.1893 14.8142 14.281 14.6879 14.281C14.6262 14.281 14.5758 14.3019 14.5758 14.3274C14.5758 14.3593 13.5818 14.3716 11.3909 14.3671C9.54873 14.3633 8.20608 14.3437 8.20608 14.3207C8.20608 14.2661 7.91233 14.2703 7.87887 14.3253C7.86403 14.3497 7.82097 14.3697 7.78319 14.3697C7.74541 14.3697 7.66805 14.4245 7.61134 14.4916L7.50811 14.6136L7.50476 17.8066C7.50218 20.2422 7.48844 21.036 7.44686 21.153C7.38953 21.3144 7.20311 21.4565 7.0416 21.462C6.98903 21.4637 6.93388 21.4852 6.91905 21.5096C6.90147 21.5385 5.74066 21.5539 3.57893 21.5539C1.39924 21.5539 0.265781 21.5691 0.265781 21.5982C0.265781 21.6226 0.226516 21.6426 0.178525 21.6426C0.0995585 21.6426 0.0912692 21.6722 0.0912692 21.953C0.0912692 22.1304 0.0725528 22.2635 0.0476412 22.2635C-0.0170155 22.2635 -0.00685019 22.6944 0.0585482 22.7254C0.102176 22.7461 0.102176 22.7565 0.0585482 22.7771C-0.0118238 22.8105 -0.0227308 45.3239 0.0476412 45.3239C0.0716366 45.3239 0.0914 45.3688 0.0916182 45.4237C0.0918363 45.4892 0.22115 45.6563 0.469262 45.9115C0.676757 46.1249 0.864052 46.2995 0.885473 46.2995C0.906894 46.2995 1.06265 46.4392 1.23162 46.6099C1.40059 46.7807 1.55813 46.9204 1.58165 46.9204C1.63238 46.9204 1.74913 47.0324 1.74913 47.0811C1.74913 47.1359 1.97888 47.3638 2.03411 47.3638C2.0619 47.3638 2.12019 47.4037 2.1636 47.4525C2.20701 47.5013 2.26054 47.5412 2.28253 47.5412C2.331 47.5412 2.44718 47.6546 2.44718 47.7019C2.44718 47.7488 2.67317 47.9847 2.71802 47.9847C2.73801 47.9847 2.89371 48.1244 3.06404 48.2951C3.23436 48.4659 3.39099 48.6055 3.4121 48.6055C3.43322 48.6055 3.53142 48.6854 3.63033 48.7829C3.72923 48.8805 3.83494 48.9603 3.86526 48.9603C3.89554 48.9603 3.93062 49.0002 3.94318 49.049C3.95571 49.0978 3.99262 49.1377 4.02516 49.1377C4.05771 49.1377 4.10374 49.181 4.12743 49.2339C4.15112 49.2868 4.20866 49.3516 4.25534 49.378C4.30202 49.4044 4.37938 49.4609 4.42719 49.5036C4.47501 49.5463 4.53988 49.5812 4.57138 49.5812C4.60284 49.5812 4.62858 49.6091 4.62858 49.6433C4.62858 49.7104 4.91849 50.0246 4.9804 50.0246C5.00116 50.0246 5.15971 50.1643 5.33274 50.3351C5.50576 50.5058 5.66418 50.6455 5.68477 50.6455C5.738 50.6455 6.00212 50.9209 6.03663 51.0123C6.05255 51.0545 6.09073 51.09 6.12149 51.0911C6.1522 51.0923 6.2559 51.172 6.35189 51.2682C6.44787 51.3644 6.5418 51.4433 6.56056 51.4434C6.6041 51.4438 6.86063 51.7116 6.92197 51.8207C6.94758 51.8662 7.00517 51.9247 7.04998 51.9508C7.09474 51.9768 7.26668 52.1278 7.43198 52.2863C7.59729 52.4449 7.75387 52.5823 7.77992 52.5917C7.80596 52.6012 7.9639 52.7458 8.1309 52.9132C8.29791 53.0806 8.45249 53.2176 8.47447 53.2176C8.52962 53.2176 8.79344 53.4908 8.82882 53.5845C8.84475 53.6266 8.88781 53.6611 8.92458 53.6611C8.96132 53.6611 8.99138 53.6811 8.99138 53.7054C8.99138 53.7298 9.0217 53.7498 9.05878 53.7498C9.13548 53.7498 9.3404 53.943 9.3404 54.0153C9.3404 54.0415 9.37439 54.0763 9.41597 54.0925C9.45754 54.1087 9.62582 54.2527 9.78999 54.4126C9.95416 54.5725 10.1097 54.711 10.1358 54.7204C10.204 54.745 10.6492 55.2041 10.6492 55.2497C10.6492 55.3132 10.8034 55.435 10.8837 55.435C10.9575 55.435 11.1728 55.6215 11.1728 55.6855C11.1728 55.7305 11.3989 55.9671 11.4418 55.9671C11.4609 55.9671 11.5995 56.0868 11.75 56.233C11.9005 56.3792 12.0395 56.499 12.0591 56.4991C12.0786 56.4992 12.1902 56.5991 12.3071 56.721C12.424 56.843 12.5419 56.9428 12.5692 56.9428C12.6385 56.9428 12.7071 57.0248 12.8104 57.231C12.8805 57.371 12.9562 57.4365 13.1692 57.5415C13.3177 57.6146 13.4397 57.6981 13.4403 57.727C13.4417 57.7925 13.8343 58.1845 13.8986 58.1845C13.9245 58.1845 13.974 58.2244 14.0086 58.2732C14.0432 58.322 14.0969 58.3619 14.1279 58.3619C14.1907 58.3619 14.9248 59.0867 14.9248 59.1486C14.9248 59.1701 14.9592 59.2274 15.0011 59.276C15.1739 59.4756 15.1866 59.5448 15.1866 60.2903C15.1866 60.749 15.2029 61.0227 15.2302 61.0227C15.2581 61.0227 15.2738 61.4218 15.2738 62.1314C15.2738 62.8409 15.2581 63.24 15.2302 63.24C15.204 63.24 15.1866 63.4174 15.1866 63.6835C15.1866 63.9496 15.204 64.127 15.2302 64.127C15.2561 64.127 15.2738 64.2896 15.2738 64.5261C15.2738 64.7626 15.2561 64.9252 15.2302 64.9252C15.202 64.9252 15.1866 65.413 15.1866 66.3C15.1866 67.1869 15.202 67.6747 15.2302 67.6747C15.2542 67.6747 15.2738 67.7147 15.2738 67.7634C15.2738 67.8122 15.2542 67.8521 15.2302 67.8521C15.2062 67.8521 15.1866 67.9519 15.1866 68.0739C15.1866 68.1958 15.2062 68.2956 15.2302 68.2956C15.2582 68.2956 15.2738 68.7391 15.2738 69.5373C15.2738 70.3356 15.2582 70.779 15.2302 70.779C15.2018 70.779 15.1866 71.4442 15.1866 72.6859C15.1866 73.9277 15.2018 74.5929 15.2302 74.5929C15.2587 74.5929 15.2738 75.4059 15.2738 76.9433C15.2738 78.4806 15.2587 79.2936 15.2302 79.2936C15.2016 79.2936 15.1866 80.2102 15.1866 81.9545C15.1866 83.6988 15.2016 84.6153 15.2302 84.6153C15.2542 84.6153 15.2738 84.6466 15.2738 84.685C15.2738 84.7735 15.3785 84.8814 15.4645 84.8814C15.5007 84.8814 15.5426 84.9013 15.5574 84.9257C15.5948 84.9872 46.2497 84.9872 46.2497 84.9257C46.2497 84.8992 46.4189 84.8814 46.67 84.8814C47.0744 84.8814 47.0942 84.8768 47.1934 84.7594L47.2967 84.6375L47.2967 72.2536C47.2968 64.0272 47.3114 59.8697 47.3404 59.8697C47.3644 59.8697 47.384 59.793 47.384 59.6992C47.384 59.585 47.4129 59.5021 47.4713 59.4484C47.5193 59.4043 47.5585 59.3413 47.5585 59.3085C47.5585 59.2756 47.5782 59.2488 47.6022 59.2488C47.6262 59.2488 47.6458 59.2175 47.6458 59.1791C47.6458 59.0981 47.7481 58.9827 47.82 58.9827C47.8473 58.9827 47.9652 58.883 48.0821 58.761C48.1989 58.639 48.312 58.5393 48.3333 58.5393C48.3547 58.5393 48.5091 58.4045 48.6765 58.2399C48.8439 58.0753 49.0338 57.9122 49.0986 57.8777C49.1634 57.8431 49.2164 57.7782 49.2164 57.7335C49.2164 57.6889 49.2428 57.6523 49.2751 57.6523C49.3074 57.6523 49.3711 57.6101 49.4169 57.5584C49.4626 57.5067 49.5337 57.4517 49.5748 57.436C49.616 57.4204 49.912 57.1434 50.2327 56.8204C50.5533 56.4974 50.8346 56.2332 50.8577 56.2332C50.8808 56.2332 50.9873 56.1416 51.0942 56.0296C51.2012 55.9176 51.3329 55.8083 51.3869 55.7868C51.4409 55.7652 51.485 55.7204 51.485 55.6871C51.485 55.6249 51.7084 55.4057 51.8586 55.3205C51.9051 55.2941 51.9625 55.2293 51.9862 55.1763C52.0099 55.1235 52.0559 55.0802 52.0885 55.0802C52.121 55.0802 52.1579 55.0403 52.1704 54.9915C52.183 54.9427 52.2155 54.9026 52.2427 54.9024C52.2699 54.9022 52.3903 54.8033 52.5103 54.6825C52.6303 54.5618 52.7486 54.4622 52.7733 54.4612C52.8318 54.4588 53.1429 54.1516 53.1429 54.0964C53.1429 54.0446 53.2539 53.9273 53.3034 53.9268C53.3231 53.9266 53.5173 53.7505 53.735 53.5355C53.9526 53.3205 54.1637 53.1317 54.204 53.1159C54.2443 53.1002 54.2772 53.0568 54.2772 53.0194C54.2772 52.9821 54.3073 52.9515 54.344 52.9515C54.3808 52.9515 54.4239 52.9166 54.4398 52.8739C54.4745 52.7806 54.5623 52.6855 54.6136 52.6855C54.6341 52.6855 54.7537 52.5857 54.8795 52.4637C55.0053 52.3418 55.1239 52.242 55.1432 52.242C55.1624 52.242 55.3165 52.1054 55.4858 51.9384C55.655 51.7714 55.8253 51.6224 55.8643 51.6072C55.9033 51.592 55.9351 51.549 55.9351 51.5116C55.9351 51.4743 55.9597 51.4435 55.9896 51.4433C56.0197 51.443 56.1431 51.347 56.2641 51.2299C56.385 51.1127 56.5175 51.0038 56.5586 50.9878C56.5996 50.9718 56.6331 50.9368 56.6331 50.9101C56.6331 50.8518 57.0547 50.4217 57.1785 50.3536C57.2265 50.3272 57.2851 50.2624 57.3088 50.2095C57.3325 50.1566 57.3726 50.1133 57.3979 50.1133C57.4233 50.1133 57.6023 49.9569 57.7957 49.7658C57.9892 49.5746 58.1798 49.4056 58.2192 49.3902C58.2587 49.3748 58.291 49.3407 58.291 49.3145C58.291 49.2407 58.4689 49.0808 58.6619 48.981C58.7579 48.9314 58.8555 48.8472 58.8789 48.7939C58.9022 48.7405 58.9458 48.6913 58.9756 48.6845C59.0453 48.6686 59.9489 47.7624 59.9489 47.7085C59.9489 47.656 60.0617 47.5412 60.1133 47.5412C60.1352 47.5412 60.314 47.3816 60.5107 47.1864C60.7073 46.9913 60.8887 46.8317 60.9137 46.8317C60.9387 46.8317 61.0346 46.7518 61.1268 46.6543C61.2191 46.5567 61.3124 46.4769 61.3342 46.4769C61.3561 46.4769 61.5721 46.2773 61.8142 46.0334C62.0563 45.7895 62.2725 45.59 62.2947 45.59C62.3168 45.59 62.3674 45.5535 62.4071 45.5088C62.4739 45.4338 62.4793 44.538 62.4793 33.5184C62.4793 22.5753 62.4735 21.6042 62.4084 21.5492C62.3692 21.5162 62.2567 21.4933 62.1575 21.4981C62.0586 21.5029 60.5762 21.5193 58.8633 21.5346C55.3861 21.5656 55.3383 21.5626 55.1047 21.3017C55.0335 21.2222 54.9753 21.1267 54.9753 21.0895C54.9753 21.0522 54.9557 21.0217 54.9317 21.0217C54.9077 21.0217 54.888 20.9419 54.888 20.8443C54.888 20.7468 54.9077 20.667 54.9317 20.667C54.9603 20.667 54.9753 19.6244 54.9753 17.6278C54.9753 14.7742 54.9706 14.5868 54.8989 14.559C54.8569 14.5427 54.7845 14.4935 54.738 14.4495C54.6581 14.374 54.4663 14.3697 51.2218 14.3697C47.4617 14.3697 47.6579 14.3834 47.4137 14.1047L47.2968 13.9713V10.7863C47.2968 7.66261 47.2951 7.59951 47.2095 7.50611C47.1615 7.45378 47.1222 7.38017 47.1222 7.34256C47.1222 7.29613 47.0802 7.27418 46.9914 7.27418C46.9194 7.27418 46.8605 7.25422 46.8605 7.22983C46.8605 7.17134 46.1325 7.17134 46.097 7.22983C46.0598 7.29094 41.1888 7.29094 41.1888 7.22983C41.1888 7.20517 41.0725 7.18548 40.9271 7.18548C40.7817 7.18548 40.6653 7.20517 40.6653 7.22983C40.6653 7.25422 40.5868 7.27418 40.4908 7.27418C40.3948 7.27418 40.3163 7.25422 40.3163 7.22983C40.3163 7.20544 40.2804 7.18548 40.2366 7.18548C40.1001 7.18548 39.9216 6.9265 39.8599 6.63895C39.8452 6.57004 39.8341 5.13244 39.8355 3.44424C39.8368 1.75604 39.8255 0.311836 39.8104 0.234939C39.7899 0.130989 39.7489 0.0830946 39.6504 0.0481936C39.4421 -0.0255998 22.9801 -0.010167 22.7778 0.0640254Z" fill="var(--fill-0, #F9F9F9)"/>
<path id="Vector_2" fill-rule="evenodd" clip-rule="evenodd" d="M28.7655 41.6039C28.5104 41.6738 28.3966 41.7741 28.3378 41.981C28.3068 42.09 28.2966 47.9888 28.3055 60.7214C28.3176 78.158 28.323 79.3131 28.3931 79.4707C28.5374 79.7945 28.4669 79.7867 31.4093 79.8044L34.0204 79.8201L34.1308 79.7167C34.1915 79.6598 34.2642 79.5534 34.2922 79.4802C34.331 79.3793 34.3428 74.8351 34.3412 60.6771L34.339 42.007L34.2299 41.7853L34.1209 41.5635L31.5468 41.5553C29.5688 41.5489 28.9248 41.5602 28.7655 41.6039ZM36.3241 48.2917C36.1861 48.3629 36.1022 48.4456 36.0417 48.5704C35.9566 48.7458 35.9555 48.9186 35.9454 63.9588C35.9386 73.9925 35.9499 79.2266 35.9787 79.3366C36.0027 79.4284 36.0827 79.5734 36.1565 79.6588L36.2907 79.8141L38.936 79.8011C41.3818 79.789 41.5969 79.7819 41.7885 79.7065L41.9957 79.6249V64.1133V48.6017L41.8382 48.4611C41.7515 48.3838 41.6315 48.3015 41.5714 48.2783C41.5095 48.2544 40.3893 48.2261 38.9912 48.2132L36.5204 48.1904L36.3241 48.2917ZM21.113 48.3009C21.0374 48.335 20.9286 48.4331 20.8712 48.5188L20.767 48.6747L20.777 64.0252L20.7869 79.3757L20.8999 79.5263C20.9678 79.6168 21.0778 79.6962 21.1754 79.7252C21.2868 79.7583 22.1474 79.7692 23.9119 79.7599C26.3525 79.747 26.4923 79.7419 26.6077 79.6624C26.6747 79.6163 26.7508 79.5379 26.777 79.4882C26.8111 79.4235 26.8229 75.0424 26.8186 64.0285C26.8129 49.2763 26.8095 48.6546 26.7338 48.5482C26.6904 48.4872 26.5776 48.3974 26.4831 48.3486C26.3181 48.2634 26.214 48.2595 23.781 48.2493C21.6901 48.2406 21.2267 48.2496 21.113 48.3009Z" fill="var(--fill-0, #F8C42D)"/>
<path id="Vector_3" fill-rule="evenodd" clip-rule="evenodd" d="M28.6643 4.17998C28.6048 4.21085 28.5315 4.28566 28.5013 4.34615C28.4577 4.43378 28.4464 7.84752 28.446 21.1439C28.4453 39.3982 28.4251 38.0189 28.6946 38.1324C28.7843 38.1702 29.5661 38.1807 31.6235 38.1719L34.4299 38.1598L34.5352 38.0354L34.6405 37.911V21.1528V4.39458L34.5352 4.27014L34.4299 4.1457L31.6012 4.13475C29.3872 4.12619 28.749 4.13599 28.6643 4.17998ZM38.5522 11.261L36.2033 11.2856L36.1243 11.3848C36.0634 11.4613 36.0386 11.5988 36.0162 11.9835C36.0003 12.2582 35.9934 19.7769 36.001 28.6918C36.0131 43.0093 36.0224 44.9124 36.0802 45.0017C36.1162 45.0573 36.2144 45.1232 36.2983 45.1481C36.3973 45.1775 37.4286 45.1887 39.2311 45.18L42.0112 45.1667L42.1106 45.0656L42.2099 44.9646V28.2259V11.4871L42.0891 11.3642C41.9451 11.2176 42.1405 11.2233 38.5522 11.261ZM21.0889 11.3265C21.0075 11.3629 20.9354 11.4383 20.9092 11.5148C20.88 11.5999 20.873 17.2023 20.888 28.2878L20.9106 44.933L21.0094 45.0498L21.1083 45.1667H23.9685H26.8286L26.928 45.0656L27.0274 44.9646V28.2481V11.5315L26.9065 11.4085L26.7855 11.2856L24.0052 11.2757C21.7326 11.2677 21.2 11.2769 21.0889 11.3265ZM13.538 18.3588C13.4854 18.3806 13.4118 18.4458 13.3746 18.5036C13.3136 18.5982 13.3066 20.1057 13.3045 33.4312C13.3022 48.1229 13.303 48.2549 13.3885 48.3953C13.436 48.4733 14.1283 49.1756 14.927 49.9561C15.7257 50.7366 16.7147 51.7045 17.1246 52.107C18.5004 53.4577 19.0988 54.0096 19.2211 54.0408C19.3157 54.0649 19.3587 54.0503 19.4202 53.9732C19.4954 53.8788 19.4986 53.1531 19.4976 36.4162C19.497 26.814 19.481 18.8613 19.4619 18.7436C19.4419 18.6206 19.3868 18.4886 19.3323 18.4332L19.2374 18.3367L16.4355 18.328C14.8664 18.323 13.5915 18.3366 13.538 18.3588ZM43.8508 18.3759C43.7935 18.4085 43.7205 18.4829 43.6888 18.5412C43.641 18.6286 43.6307 21.7292 43.6294 36.2812C43.6279 53.309 43.6306 53.9188 43.7077 54.0157C43.7673 54.0904 43.8152 54.1089 43.8958 54.0883C44.0072 54.0599 44.7754 53.327 46.6423 51.4681C47.2325 50.8804 48.1535 49.9705 48.689 49.4461C49.3779 48.7715 49.6861 48.4388 49.743 48.3085C49.8207 48.1305 49.823 47.6227 49.8123 33.3315L49.8012 18.5388L49.7019 18.4378L49.6025 18.3367L46.7788 18.3267C44.4893 18.3186 43.9353 18.3279 43.8508 18.3759ZM51.7985 25.5841C51.4943 25.6034 51.3774 25.6289 51.3186 25.6888C51.2446 25.7643 51.2404 26.2655 51.2298 36.2619C51.2175 47.806 51.1981 46.9627 51.4757 46.9627C51.601 46.9627 52.1376 46.5331 53.0515 45.701C53.2555 45.5153 53.7529 45.0697 54.1568 44.7107C54.5607 44.3517 55.0254 43.9382 55.1893 43.7919C55.3532 43.6456 55.8178 43.2337 56.2217 42.8768C56.6257 42.5198 57.0289 42.1506 57.1177 42.0563C57.4396 41.7148 57.4143 42.4213 57.4143 33.7553C57.4143 28.1612 57.4006 25.9156 57.366 25.8145C57.271 25.5376 57.3197 25.5423 54.6352 25.5509C53.2962 25.5552 52.0198 25.5701 51.7985 25.5841ZM5.71272 25.5986C5.71141 25.6046 5.70648 29.2392 5.70181 33.6753L5.6933 41.7411L6.18543 42.2219C6.4561 42.4865 6.92946 42.918 7.23743 43.1808C7.54536 43.4437 8.11902 43.9509 8.51224 44.3079C8.90546 44.665 9.43331 45.1323 9.68527 45.3466C9.93722 45.5608 10.3012 45.8888 10.4942 46.0754C10.918 46.4853 11.48 46.9446 11.6086 46.9861C11.6724 47.0067 11.7288 46.9895 11.785 46.9324C11.8655 46.8505 11.8677 46.5895 11.8708 36.3621C11.8726 30.5946 11.8602 25.8401 11.8433 25.7965C11.7623 25.5881 11.753 25.5875 8.64038 25.5875C7.03146 25.5875 5.71403 25.5925 5.71272 25.5986Z" fill="var(--fill-0, black)"/>
</g>
</svg>
