<svg preserveAspectRatio="none" width="100%" height="100%" overflow="visible" style="display: block;" viewBox="0 0 74.9753 74.9753" fill="none" xmlns="http://www.w3.org/2000/svg">
<g id="Logo">
<g id="Vector">
<path fill-rule="evenodd" clip-rule="evenodd" d="M37.4877 71.6675C56.3647 71.6675 71.6675 56.3647 71.6675 37.4877C71.6675 18.6107 56.3647 3.30784 37.4877 3.30784C18.6107 3.30784 3.30784 18.6107 3.30784 37.4877C3.30784 56.3647 18.6107 71.6675 37.4877 71.6675ZM37.4877 74.9753C58.1915 74.9753 74.9753 58.1915 74.9753 37.4877C74.9753 16.7839 58.1915 0.000110626 37.4877 0.000110626C16.7839 0.000110626 0.000110626 16.7839 0.000110626 37.4877C0.000110626 58.1915 16.7839 74.9753 37.4877 74.9753Z" fill="white"/>
<path fill-rule="evenodd" clip-rule="evenodd" d="M59.8428 15.0676C54.8401 23.3488 45.3203 24.226 37.0801 24.226C35.9498 24.226 34.8472 24.2101 33.7834 24.1947C33.0201 24.1837 32.2768 24.1729 31.5575 24.1686L29.3307 32.8773C40.7346 23.5801 55.8155 32.7972 54.2033 46.8266C53.1169 56.2752 46.3808 62.4542 39.2547 64.2301C31.4914 66.1661 22.8906 63.269 19.0342 55.3577C18.625 54.522 17.9129 52.8471 17.6413 51.9522L25.8277 49.849C25.9722 50.3209 26.2177 50.777 26.4754 51.1931C31.9562 60.0324 43.0624 55.6119 44.3159 46.4418C45.5921 37.1133 32.5029 32.1443 26.5381 43.0468L19.2779 39.9529L19.1526 39.8972L22.6538 25.8417C22.8697 24.8424 23.5974 22.0515 23.7228 21.5936C26.8232 10.1931 35.3524 7.58322 43.8389 6.96909C59.4545 5.55052 65.069 8.4316 59.8428 15.0676Z" fill="white"/>
</g>
<path id="Vector_2" fill-rule="evenodd" clip-rule="evenodd" d="M57.6487 10.5604C54.5201 18.5849 47.3975 20.2545 37.08 20.2545C35.9727 20.2545 34.8758 20.2371 33.8173 20.2214C32.7936 20.2075 31.8255 20.1918 30.8767 20.1918C30.034 20.1918 29.1844 20.2023 28.3469 20.2388C29.792 16.6906 32.0989 14.2792 35.3825 12.8168C39.9597 10.7797 45.9106 10.7588 51.1616 10.7432C53.4493 10.7345 55.6396 10.7258 57.6487 10.5604" fill="var(--fill-0, #008F32)"/>
</g>
</svg>
