<svg preserveAspectRatio="none" width="100%" height="100%" overflow="visible" style="display: block;" viewBox="0 0 62.4793 74.8017" fill="none" xmlns="http://www.w3.org/2000/svg">
<g id="Logo">
<path id="Vector" d="M1.58946e-07 52.0582C5.87837 65.8428 19.4319 74.8016 34.4231 74.8016C28.5446 60.9914 14.9911 52.0582 1.58946e-07 52.0582Z" fill="var(--fill-0, #00BE64)"/>
<path id="Vector_2" d="M34.4232 74.8017C45.4355 74.8017 55.4211 68.3586 59.9902 58.3474C48.9779 58.3474 38.9925 64.7904 34.4232 74.8017Z" fill="var(--fill-0, #00BE64)"/>
<path id="Vector_3" fill-rule="evenodd" clip-rule="evenodd" d="M62.4793 28.0569C62.4793 43.5525 49.9177 56.1141 34.4222 56.1141C18.9269 56.1141 6.36528 43.5525 6.36528 28.0569C6.36528 12.5616 18.9269 3.33249e-07 34.4222 3.33249e-07C49.9177 3.33249e-07 62.4793 12.5616 62.4793 28.0569ZM48.4645 28.0569C48.4645 35.8118 42.178 42.0983 34.4231 42.0983C26.6683 42.0983 20.3818 35.8118 20.3818 28.0569C20.3818 20.3023 26.6683 14.0158 34.4231 14.0158C42.178 14.0158 48.4645 20.3023 48.4645 28.0569Z" fill="var(--fill-0, #FCB82C)"/>
</g>
</svg>
