<svg preserveAspectRatio="none" width="100%" height="100%" overflow="visible" style="display: block;" viewBox="0 0 74.9752 74.9754" fill="none" xmlns="http://www.w3.org/2000/svg">
<g id="Logo">
<path id="Vector" d="M29.1305 2.78707C31.781 0.774185 35.1922 -0.222134 38.5309 0.041718C42.8047 0.329851 46.8489 2.74336 49.1249 6.30456C51.7031 10.2138 52.0825 15.4083 50.1284 19.6477C49.2805 21.5408 47.9462 23.1742 46.439 24.597C43.4476 27.5731 40.4801 30.562 37.488 33.5331C34.1789 30.2617 30.8994 26.9644 27.6142 23.6768C25.0377 21.0803 23.5659 17.4778 23.5947 13.8551C23.5758 9.58572 25.6617 5.35518 29.1305 2.78707V2.78707Z" fill="var(--fill-0, #01B110)"/>
<path id="Vector_2" d="M27.702 51.2187C30.9576 47.9603 34.2222 44.7074 37.4729 41.4448C40.9721 44.9566 44.5347 48.4159 47.9697 51.9909C52.4716 57.0025 52.4716 65.1762 47.9846 70.1983C43.9297 75.0658 36.2793 76.4498 30.7534 73.2504C26.7323 71.0651 24.0134 66.824 23.6479 62.3393C23.2726 58.2861 24.774 54.1033 27.702 51.2187Z" fill="var(--fill-0, white)"/>
<path id="Vector_3" d="M2.36709 29.7098C4.79951 26.0345 9.12688 23.6534 13.595 23.6202C17.2984 23.5053 20.9877 25.0001 23.6095 27.5731C26.9227 30.8704 30.2129 34.1897 33.531 37.4862C30.003 40.9988 26.5334 44.5632 22.9469 48.0135C17.9133 52.5646 9.44789 52.4399 4.53117 47.778C-0.536187 43.3225 -1.49188 35.1965 2.36709 29.7098V29.7098Z" fill="var(--fill-0, #8CE622)"/>
<path id="Vector_4" d="M51.4002 27.54C54.241 24.7364 58.3641 23.2755 62.3746 23.668C66.9595 24.0517 71.2046 26.8885 73.3242 30.8989C76.6432 36.8113 74.8108 44.9413 69.1483 48.8077C64.0563 52.5793 56.3515 52.1147 51.7558 47.7781C48.2772 44.3909 44.8948 40.9123 41.4342 37.5106C44.7392 34.1663 48.0722 30.8552 51.4002 27.54Z" fill="var(--fill-0, #00882E)"/>
</g>
</svg>
