<svg preserveAspectRatio="none" width="100%" height="100%" overflow="visible" style="display: block;" viewBox="0 0 74.9752 38.7524" fill="none" xmlns="http://www.w3.org/2000/svg">
<g id="Logo">
<path id="Vector" d="M42.9047 3.10924V14.4611H46.1854V3.10924H49.9821V0.323863H39.1088V3.11003H42.9047V3.10924ZM28.9944 0.323863H25.8491V14.4611H29.5367L34.2284 4.89207H34.3096L34.0922 14.4611H37.2646V0.323863H33.5499L28.8598 9.86511H28.7778L28.9944 0.323863ZM55.2965 0.323863H51.7992V14.4611H55.6493L63.8924 4.62219H63.9737L63.9195 14.4611H67.4176V0.323863H63.5668L55.3244 10.1636H55.2424L55.2973 0.324656L55.2965 0.323863ZM23.9523 10.8938L20.6429 9.46028C19.6125 11.3257 17.9316 11.7305 15.8979 11.7305C12.5351 11.7305 10.8271 10.2445 10.8271 7.45995V7.27103C10.8271 4.48645 12.5351 3.00049 15.8979 3.00049C17.9316 3.00049 19.6125 3.37833 20.6437 5.2707L23.9515 3.83793C22.378 0.62153 19.2327 0 15.8979 0C10.5293 0.000793781 7.16658 2.75759 7.16658 7.10989V7.64967C7.16658 12.029 10.5293 14.7588 15.8979 14.7588C19.2056 14.7588 22.3788 14.1102 23.9515 10.8931L23.9523 10.8938Z" fill="var(--fill-0, white)"/>
<path id="Vector_2" d="M4.76837e-07 38.7524H3.36272V35.8607H12.4468V38.7262H15.7816V33.0491H14.0194V21.7504H3.06411L2.82045 28.3999C2.7663 30.1304 2.41434 31.5354 1.51852 33.0491H4.76837e-07V38.7524V38.7524ZM5.99285 28.6714L6.12822 24.5628H10.6567V33.0213H4.93538C5.61302 31.7783 5.93871 30.2375 5.99285 28.6698V28.6714ZM24.54 21.7512H17.6799V35.8885H21.0148V30.7257H24.54C27.6311 30.7257 29.5295 29.212 29.5295 26.2115C29.5295 23.184 27.7124 21.7512 24.54 21.7512V21.7512ZM21.0148 27.9141V24.5358H24.4587C25.5704 24.5358 26.2209 25.1573 26.2209 26.2107C26.2209 27.2656 25.5704 27.9411 24.4587 27.9411H21.0148V27.9141V27.9141ZM62.5292 21.7512V35.8885H69.8773C72.5887 35.8885 74.9752 34.9693 74.9752 31.9418C74.9752 30.4281 74.2434 29.3739 73.0768 28.7794C74.0801 28.1578 74.6495 27.1037 74.6495 25.7249C74.6495 22.6974 72.3179 21.7782 69.5795 21.7782H62.5292V21.7512V21.7512ZM65.837 27.4545V24.4818H69.6337C70.8265 24.4818 71.3959 24.9946 71.3959 25.9948C71.3959 27.0497 70.8265 27.4815 69.6337 27.4815H65.837V27.4545V27.4545ZM65.837 33.1309V30.1582H69.9315C71.0702 30.1582 71.6403 30.6448 71.6403 31.6449C71.6403 32.6451 71.0972 33.1579 69.9315 33.1579H65.837V33.1309ZM45.8804 18.5071L45.9075 20.94L57.9195 19.7771V18.5071H45.8804V18.5071ZM33.7594 21.7496L29.1767 35.8869H32.8102L33.4608 33.6167H37.9622L38.6677 35.8869H42.3553L37.7456 21.7496H33.7594ZM37.1492 30.8067H34.1663L35.6306 24.9406H35.7119L37.1492 30.8067V30.8067ZM47.5614 21.7496H44.0633V35.8869H47.9134L56.1565 26.048H56.2385L56.1844 35.8869H59.6817V21.7496H55.8316L47.5885 31.5886H47.5073L47.5614 21.7496Z" fill="var(--fill-0, #32D264)"/>
</g>
</svg>
