<svg preserveAspectRatio="none" width="100%" height="100%" overflow="visible" style="display: block;" viewBox="0 0 89.9703 48.102" fill="none" xmlns="http://www.w3.org/2000/svg">
<g id="Logo">
<path d="M72.4193 13.9161C68.7688 13.9161 65.4681 14.9898 62.6541 16.8358V0H54.8683V31.0515C54.8683 40.4997 62.7424 48.102 72.376 48.102C82.0095 48.102 89.9703 40.5431 89.9703 30.9666C89.9703 21.3885 82.1844 13.9161 72.4193 13.9161ZM72.376 40.4998C67.0959 40.4998 62.6541 36.3782 62.6541 31.0099C62.6541 25.6398 66.8327 21.5599 72.4193 21.5599C78.0058 21.5599 82.1844 25.813 82.1844 31.0099C82.1844 36.2051 77.7426 40.4998 72.376 40.4998Z" fill="var(--fill-0, white)"/>
<path d="M35.4114 33.2421L28.2851 15.1179H22.8305L15.6601 33.2421L8.48993 15.1179H0L12.537 46.985H17.9917L25.5138 28.0019L33.08 46.985H38.5346L51.0276 15.1179H42.5816L35.4114 33.2421Z" fill="var(--fill-0, white)"/>
</g>
</svg>
