<svg preserveAspectRatio="none" width="100%" height="100%" overflow="visible" style="display: block;" viewBox="0 0 89.9702 19.676" fill="none" xmlns="http://www.w3.org/2000/svg">
<path id="Logo" fill-rule="evenodd" clip-rule="evenodd" d="M10.8686 0.0541395C8.84728 -0.158779 6.80964 0.259577 5.03574 1.2517C3.26185 2.24383 1.83878 3.76103 0.962138 5.59474C0.0854987 7.42846 -0.201676 9.48869 0.140087 11.4922C0.481849 13.4958 1.43577 15.3443 2.87074 16.7837C4.3057 18.2231 6.15127 19.1828 8.15375 19.5307C10.1562 19.8787 12.2173 19.5979 14.0538 18.7269C15.8902 17.856 17.4118 16.4376 18.4094 14.6668C19.407 12.896 19.8316 10.8596 19.625 8.83765C19.3976 6.59012 18.4026 4.48959 16.8078 2.88975C15.2129 1.28992 13.1154 0.28851 10.8686 0.0541395V0.0541395ZM10.5498 15.0443C9.46268 15.1901 8.35719 14.9916 7.38869 14.4767C6.4202 13.9618 5.63739 13.1564 5.15028 12.1737C4.66317 11.1909 4.49626 10.0802 4.673 8.99767C4.84974 7.91514 5.36124 6.91521 6.13562 6.1384C6.91 5.36159 7.90833 4.84696 8.9903 4.66684C10.0723 4.48671 11.1835 4.65015 12.1678 5.13418C13.152 5.61821 13.9599 6.39849 14.4778 7.36537C14.9958 8.33226 15.1977 9.43712 15.0553 10.5247C14.9058 11.6686 14.3834 12.7314 13.5689 13.5484C12.7544 14.3655 11.6933 14.8912 10.5498 15.0443V15.0443ZM24.8869 0.443341C24.5457 0.444158 24.209 0.521034 23.9012 0.668376C23.5934 0.815718 23.3224 1.02982 23.1078 1.2951C22.8932 1.56038 22.7404 1.87017 22.6606 2.20192C22.5808 2.53367 22.576 2.87904 22.6465 3.2129C22.8623 4.29449 23.8726 5.03351 24.9731 5.03351H31.3597L21.4207 18.1865C21.3472 18.2836 21.3022 18.3992 21.2907 18.5205C21.2793 18.6417 21.3018 18.7638 21.3558 18.8729C21.4098 18.9821 21.4932 19.0741 21.5965 19.1385C21.6998 19.2029 21.8191 19.2373 21.9409 19.2378H37.5312C38.631 19.2378 39.642 18.499 39.8579 17.4172C39.9284 17.0834 39.9236 16.7381 39.8439 16.4064C39.7641 16.0746 39.6114 15.7649 39.3969 15.4996C39.1824 15.2343 38.9115 15.0201 38.6039 14.8727C38.2962 14.7252 37.9595 14.6482 37.6184 14.6473H29.8367L39.7682 1.5045C39.8424 1.40645 39.8878 1.28966 39.8994 1.16723C39.9109 1.04481 39.8881 0.921579 39.8336 0.811381C39.779 0.701184 39.6948 0.608374 39.5904 0.543365C39.486 0.478356 39.3656 0.443719 39.2426 0.443341H24.8869V0.443341ZM87.185 0.496288C86.6689 0.619022 86.2101 0.914233 85.8845 1.33311C85.5589 1.75198 85.386 2.26944 85.3943 2.79992V10.4424L73.0107 0.58769C72.9135 0.510602 72.7966 0.462495 72.6734 0.448903C72.5502 0.435311 72.4256 0.456786 72.314 0.510858C72.2024 0.564929 72.1084 0.649401 72.0427 0.754555C71.977 0.859709 71.9423 0.981273 71.9426 1.10526V16.8853C71.9342 17.4158 72.1071 17.9333 72.4327 18.3522C72.7583 18.771 73.2172 19.0662 73.7333 19.1889C74.0685 19.2627 74.4159 19.2603 74.7501 19.1818C75.0842 19.1034 75.3964 18.9509 75.6637 18.7357C75.931 18.5205 76.1466 18.248 76.2946 17.9384C76.4426 17.6287 76.5192 17.2898 76.5187 16.9466V9.238L88.9025 19.0929C88.9996 19.1699 89.1165 19.218 89.2397 19.2316C89.3629 19.2452 89.4874 19.2237 89.5989 19.1696C89.7105 19.1156 89.8045 19.0312 89.8702 18.9261C89.9358 18.821 89.9705 18.6994 89.9702 18.5755V2.73787C89.9706 2.39476 89.8939 2.05595 89.7459 1.74641C89.5979 1.43687 89.3823 1.1645 89.115 0.949376C88.8477 0.734253 88.5355 0.581866 88.2015 0.503448C87.8675 0.425031 87.5201 0.422584 87.185 0.496288V0.496288ZM54.9413 4.59415C60.1793 4.59415 64.093 7.36222 64.093 9.83825C64.093 12.3143 60.1793 15.0823 54.9413 15.0823C49.7033 15.0823 45.7896 12.3143 45.7896 9.83825C45.7896 7.36222 49.7033 4.59415 54.9413 4.59415V4.59415ZM54.9413 0.00416557C47.3596 0.00416557 41.2135 4.40707 41.2135 9.83825C41.2135 15.2694 47.3596 19.6723 54.9413 19.6723C62.523 19.6723 68.6689 15.2694 68.6689 9.83825C68.6689 4.40707 62.5228 0.00416557 54.9413 0.00416557V0.00416557Z" fill="var(--fill-0, white)"/>
</svg>
