<svg preserveAspectRatio="none" width="100%" height="100%" overflow="visible" style="display: block;" viewBox="0 0 64.9785 59.9801" fill="none" xmlns="http://www.w3.org/2000/svg">
<path id="Logo" d="M56.4453 0.00547929C54.6627 0.00547929 53.3127 1.18982 52.6401 2.61307L42.8731 18.7157C42.1958 20.205 41.7015 21.8781 41.7015 22.9855C41.7015 23.9752 41.837 24.8496 42.1992 25.6555L52.7646 50.9315H11.737C10.2601 50.9315 9.0412 49.446 9.0412 48.0745V4.535C8.73077 -1.41721 0.188138 -1.41401 0 4.722L0.18663 50.9315C0.18663 55.9553 4.06492 59.9801 9.0412 59.9801H64.9785L51.3441 25.0425C50.9678 23.7418 50.8002 22.5622 51.7173 21.0117L60.7378 6.32188C60.8648 6.01555 61.0489 4.72031 61.0489 4.34801C60.8701 1.68058 58.7829 -0.112338 56.4453 0.00547929ZM34.2985 0.0262569C32.1043 0.0409844 29.9127 1.5589 29.9127 4.535V35.6911C29.9127 40.2153 23.8368 39.843 23.8368 35.6911V4.535C23.8368 -1.41721 15.0445 -1.41721 15.0445 4.535V35.9404C15.0445 43.1226 20.3998 47.8979 26.7918 47.8979C33.3579 47.8979 38.6947 43.1226 38.6947 35.9404V4.535C38.6947 1.49999 36.4927 0.0115294 34.2985 0.0262569Z" fill="var(--fill-0, white)"/>
</svg>
