<svg preserveAspectRatio="none" width="100%" height="100%" overflow="visible" style="display: block;" viewBox="0 0 209.181 197.657" fill="none" xmlns="http://www.w3.org/2000/svg">
<g id="Sneaker">
<g id="Group">
<path id="Vector" d="M143.416 47.8785C143.416 47.8785 139.215 45.4073 135.538 51.5541C131.861 57.7008 123.82 76.8246 118.329 79.7344C112.838 82.6442 88.8064 91.5435 79.9517 92.6837C71.097 93.8238 62.2848 92.5873 58.5278 97.8809C54.7729 103.167 78.0638 101.981 78.0638 101.981L122.771 89.5685L143.414 47.8858L143.416 47.8785Z" fill="var(--fill-0, #BA9AF1)" stroke="var(--stroke-0, #191919)" stroke-width="1.6238" stroke-linecap="round" stroke-linejoin="round"/>
<path id="Vector_2" d="M27.5146 95.1413C27.5146 95.1413 37.2533 95.635 48.8125 97.3522C60.3716 99.0694 75.5512 97.0297 79.722 96.0919C83.8929 95.1542 110.935 86.4166 116.438 83.7848C121.94 81.153 126.784 76.3655 129.223 72.4297C131.96 68.0142 135.236 61.5332 137.979 55.4822C141.048 48.7096 145.109 46.6252 145.109 46.6252C145.109 46.6252 149.98 44.7374 157.202 48.7433C164.422 52.7564 168.012 55.9244 172.216 57.6923C176.42 59.4602 153.668 131.547 153.668 131.547L73.6503 126.966L26.9817 101.127L27.4993 95.1365L27.5146 95.1413Z" fill="var(--fill-0, white)" stroke="var(--stroke-0, #191919)" stroke-width="1.6238" stroke-linecap="round" stroke-linejoin="round"/>
<path id="Vector_3" d="M12.6872 104.52C12.6872 104.52 15.3786 100.513 18.2868 98.605C21.1949 96.6972 27.5562 96.6966 27.5562 96.6966C27.5562 96.6966 35.9451 103.429 52.3439 108.95C67.3108 113.996 79.5722 116.893 79.5722 116.893C79.5722 116.893 84.145 118.728 87.4915 121.828C91.4382 125.479 95.7295 128.825 97.8976 126.819C99.1735 125.64 99.2103 123.463 95.2821 119.322C92.6199 116.512 87.609 111.632 86.8203 108.657C86.2832 106.636 87.3963 104.196 87.3963 104.196C87.3963 104.196 93.7812 105.196 98.8772 104.089C103.966 102.981 109.703 98.7839 113.337 98.5285C116.97 98.2803 120.568 99.6893 120.568 99.6893C120.568 99.6893 121.712 104.287 121.241 110.945C120.771 117.603 123.65 126.982 125.356 133.6C127.062 140.219 129.165 145.921 128.658 150.286C128.151 154.652 106.99 152.389 106.99 152.389L43.7662 123.447L12.214 106.15L12.6913 104.506L12.6872 104.52Z" fill="var(--fill-0, #A57BEC)" stroke="var(--stroke-0, #191919)" stroke-width="1.6238" stroke-linecap="round" stroke-linejoin="round"/>
<path id="Vector_4" d="M192.964 120.945C194.04 116.77 194.024 104.141 195.01 98.6808C195.996 93.2202 197.788 85.8189 198.588 83.0612C199.388 80.3034 200.366 77.8304 197.917 74.4922C195.788 71.5858 188.945 64.4412 181.842 59.4389C174.943 54.5786 167.448 55.1971 163.572 61.043C161.192 64.6319 156.514 72.9261 154.376 78.9628C152.238 84.9995 155.156 89.25 154.427 92.196C153.699 95.1421 142.472 87.8167 135.03 90.6902C127.588 93.5636 127.13 98.7132 119.253 97.2517C111.379 95.783 127.499 148.849 127.499 148.849L156.429 159.575L163.124 153.702L192.957 120.967L192.964 120.945Z" fill="var(--fill-0, white)" stroke="var(--stroke-0, #191919)" stroke-width="1.6238" stroke-linecap="round" stroke-linejoin="round"/>
<path id="Vector_5" d="M184.993 61.0587C184.196 60.44 183.393 59.8431 182.582 59.2752C175.686 54.4167 168.194 55.0348 164.321 60.8782C161.943 64.4656 157.267 72.7563 155.13 78.7905C152.993 84.8247 155.909 89.0735 155.182 92.0184C154.456 94.9559 143.232 87.6405 135.794 90.5126C128.359 93.3775 127.899 98.5323 120.026 97.0711C117.272 96.5571 117.458 102.734 118.858 110.964C124.034 112.356 130.131 113.235 136.329 107.646C143.096 101.545 146.891 102.359 155.189 104.268C161.587 105.738 165.244 104.152 166.05 98.6462C166.566 95.1535 167.176 90.0611 171.095 82.3499C175.013 74.6388 182.162 63.9128 184.981 61.0708L184.993 61.0587Z" fill="var(--fill-0, #BA9AF1)" stroke="var(--stroke-0, #191919)" stroke-width="1.6238" stroke-linecap="round" stroke-linejoin="round"/>
<path id="Vector_6" d="M194.756 97.8638C195.308 94.7723 196.121 91.0683 196.871 87.9281C196.871 87.9281 190.825 80.6998 185.188 75.2141C180.027 70.1992 173.956 64.8231 171.816 63.0948C169.668 61.3641 166.255 60.8483 164.421 64.2275C162.533 67.708 160.483 71.6586 159.449 73.6074C157.723 76.8466 158.042 78.5533 160.652 82.2167C163.263 85.8802 176.389 100.469 178.628 104.75C180.877 109.026 181.323 110.378 179.927 113.405C178.531 116.431 193.329 115.697 193.346 115.695C193.848 110.145 194.019 101.97 194.756 97.8638Z" fill="var(--fill-0, #A57BEC)" stroke="var(--stroke-0, #191919)" stroke-width="1.6238" stroke-linecap="round" stroke-linejoin="round"/>
<path id="Vector_7" d="M137.906 53.4924C137.356 54.7041 136.782 55.9398 136.195 57.1635C136.163 57.271 136.152 57.3379 136.152 57.3379L153.628 62.661C153.628 62.661 154.309 61.0527 155.439 58.6148C157.038 55.1588 159.868 52.0145 159.868 52.0145C159.868 52.0145 156.824 50.3041 151.207 47.8966C145.644 45.5057 142.835 46.3679 142.781 46.3824C141.361 47.7302 139.499 49.9719 137.896 53.4971L137.906 53.4924Z" fill="var(--fill-0, #A57BEC)" stroke="var(--stroke-0, #191919)" stroke-width="1.6238" stroke-linecap="round" stroke-linejoin="round"/>
<g id="Group_2">
<path id="Vector_8" d="M125.947 73.1173C131.906 72.9033 155.672 74.0324 159.22 73.8294C162.768 73.6265 166.338 74.6564 166.464 75.9902C166.589 77.324 166.929 77.2608 164.182 77.2905C147.835 77.4573 128.267 76.5871 126.106 76.6146C123.945 76.6422 123.372 73.208 125.947 73.1173Z" fill="var(--fill-0, #6F6C8B)" stroke="var(--stroke-0, #191919)" stroke-width="1.6238" stroke-linecap="round" stroke-linejoin="round"/>
<path id="Vector_9" d="M140.324 90.5978C140.324 90.5978 130.231 83.8156 116.691 82.0317L118.795 84.6808C118.795 84.6808 131.282 89.8561 134.983 91.495C138.684 93.1339 140.322 90.6047 140.322 90.6047L140.324 90.5978Z" fill="var(--fill-0, #6F6C8B)" stroke="var(--stroke-0, #191919)" stroke-width="1.6238" stroke-linecap="round" stroke-linejoin="round"/>
<path id="Vector_10" d="M160.485 97.0384C160.485 97.0384 157.642 89.1965 132.719 82.2022L138.355 87.7825C138.355 87.7825 151.596 92.305 157.874 97.398C160.043 99.1571 160.487 97.0314 160.487 97.0314L160.485 97.0384Z" fill="var(--fill-0, #6F6C8B)" stroke="var(--stroke-0, #191919)" stroke-width="1.6238" stroke-linecap="round" stroke-linejoin="round"/>
<path id="Vector_11" d="M125.957 91.3002C125.957 91.3002 116.134 88.3472 111.388 86.1901C106.649 84.0352 114.358 90.0832 114.358 90.0832C114.358 90.0832 125.86 95.3721 130.414 96.3028C134.969 97.2334 125.949 91.2979 125.949 91.2979L125.957 91.3002Z" fill="var(--fill-0, #6F6C8B)" stroke="var(--stroke-0, #191919)" stroke-width="1.6238" stroke-linecap="round" stroke-linejoin="round"/>
<path id="Vector_12" d="M119.29 95.8886C119.29 95.8886 106.139 92.278 101.403 90.1526C96.6666 88.0272 105.982 95.0264 105.982 95.0264C105.982 95.0264 113.589 98.2971 123.164 100.153C127.715 101.035 119.282 95.8863 119.282 95.8863L119.29 95.8886Z" fill="var(--fill-0, #6F6C8B)" stroke="var(--stroke-0, #191919)" stroke-width="1.6238" stroke-linecap="round" stroke-linejoin="round"/>
<path id="Vector_13" d="M109.042 98.8457C109.042 98.8457 98.02 95.4058 93.5242 92.791L97.5534 97.6011C97.5534 97.6011 102.567 100.55 112.437 103.157C116.938 104.346 109.042 98.8457 109.042 98.8457Z" fill="var(--fill-0, #6F6C8B)" stroke="var(--stroke-0, #191919)" stroke-width="1.6238" stroke-linecap="round" stroke-linejoin="round"/>
<path id="Vector_14" d="M101.646 101.383C101.646 101.383 90.1317 98.6813 84.5772 96.1603L89.5828 100.169C89.5828 100.169 94.5833 103.102 104.429 105.692C108.918 106.873 101.656 101.378 101.656 101.378L101.646 101.383Z" fill="var(--fill-0, #6F6C8B)" stroke="var(--stroke-0, #191919)" stroke-width="1.6238" stroke-linecap="round" stroke-linejoin="round"/>
<path id="Vector_15" d="M114.373 107.063C116.003 106.944 115.827 104.035 113.69 100.554C112.18 98.0958 106.628 92.1359 100.43 89.7728C94.2341 87.4026 94.8273 90.5343 95.9723 91.2312C97.1174 91.9281 101.015 92.4146 105.878 96.8141C109.883 100.444 110.89 102.343 111.599 104.118C112.243 105.719 113.133 107.156 114.373 107.063Z" fill="var(--fill-0, #6F6C8B)" stroke="var(--stroke-0, #191919)" stroke-width="1.6238" stroke-linecap="round" stroke-linejoin="round"/>
<path id="Vector_16" d="M107.022 108.991C108.098 108.739 108.074 107.242 107.38 105.535C106.53 103.449 102.222 97.4141 97.8395 94.9772C92.7505 92.1429 89.8075 91.9066 88.2874 92.1439C86.7673 92.3812 86.1247 93.8334 89.8026 94.5996C94.1383 95.5009 99.1458 98.1864 102.973 104.936C105.26 108.975 106.027 109.222 107.022 108.991Z" fill="var(--fill-0, #6F6C8B)" stroke="var(--stroke-0, #191919)" stroke-width="1.6238" stroke-linecap="round" stroke-linejoin="round"/>
<path id="Vector_17" d="M99.3626 110.394C100.802 110.073 100.133 107.385 99.0171 105.671C97.899 103.965 94.5338 99.8559 88.581 97.6396C85.3888 96.4492 82.8147 95.7501 80.8228 95.5235C78.4047 95.2569 77.8064 95.7548 77.6547 96.5371C77.4667 97.531 78.2752 97.9355 82.6102 98.9738C88.0272 100.271 93.0984 103.565 95.024 106.966C96.8594 110.193 98.421 110.594 99.3667 110.38L99.3626 110.394Z" fill="var(--fill-0, #6F6C8B)" stroke="var(--stroke-0, #191919)" stroke-width="1.6238" stroke-linecap="round" stroke-linejoin="round"/>
<path id="Vector_18" d="M160 98.3132C160.862 97.9226 161.46 96.7128 160.094 94.3405C159.161 92.7233 153.874 85.662 147.407 79.3185C142.422 74.4219 134.802 67.4245 132.304 66.0643C129.799 64.7017 128.218 67.5906 130.573 69.1002C132.925 70.6168 138.673 76.7127 144.272 82.1962C149.869 87.6868 154.017 93.0358 155.785 95.2235C157.548 97.4016 158.505 98.9951 160.007 98.3156L160 98.3132Z" fill="var(--fill-0, #6F6C8B)" stroke="var(--stroke-0, #191919)" stroke-width="1.6238" stroke-linecap="round" stroke-linejoin="round"/>
<path id="Vector_19" d="M170.902 69.5428C171.066 68.2952 170.451 67.5477 167.274 67.0385C164.097 66.5294 136.815 63.6593 132.029 63.9281C129.084 64.0941 128.758 67.2924 131.492 67.4278C137.372 67.7266 163.645 70.3304 166.483 70.704C168.4 70.9609 170.703 70.9936 170.894 69.5404L170.902 69.5428Z" fill="var(--fill-0, #6F6C8B)" stroke="var(--stroke-0, #191919)" stroke-width="1.6238" stroke-linecap="round" stroke-linejoin="round"/>
<path id="Vector_20" d="M167.748 76.9911C168.409 75.9314 167.55 74.509 164.662 72.7731C161.774 71.0372 148.597 63.4468 135.319 58.6879C132.567 57.7016 131.029 60.3939 133.785 61.564C144.463 66.0842 154.667 71.615 162.778 75.9219C165.311 77.2668 166.982 78.2161 167.75 76.9841L167.748 76.9911Z" fill="var(--fill-0, #6F6C8B)" stroke="var(--stroke-0, #191919)" stroke-width="1.6238" stroke-linecap="round" stroke-linejoin="round"/>
<path id="Vector_21" d="M136.054 101.308C136.81 101.103 137.71 98.7881 134.645 94.7996C131.58 90.8111 126.573 86.1335 121.699 83.8753C116.825 81.6171 115.462 82.027 114.236 82.6261C113.009 83.2252 113.8 84.4828 116.448 85.3687C119.097 86.2547 126.879 90.5142 130.477 96.3058C134.078 102.09 135.438 101.487 136.06 101.317L136.054 101.308Z" fill="var(--fill-0, #6F6C8B)" stroke="var(--stroke-0, #191919)" stroke-width="1.6238" stroke-linecap="round" stroke-linejoin="round"/>
<path id="Vector_22" d="M120.804 80.7886C126.237 82.0772 131.247 83.9429 137.122 89.6445C142.33 94.6998 142.638 98.54 144.528 98.2183C146 97.9672 146.313 96.3385 145.177 93.5279C144.192 91.0875 138.782 84.5211 132.858 81.5468C127.106 78.6645 122.734 78.3456 121.618 78.2835C119.516 78.1618 118.386 80.2141 120.796 80.7863L120.804 80.7886Z" fill="var(--fill-0, #6F6C8B)" stroke="var(--stroke-0, #191919)" stroke-width="1.6238" stroke-linecap="round" stroke-linejoin="round"/>
<path id="Vector_23" d="M125.958 105.743C127.194 105.609 127.356 103.112 125.881 99.8872C124.719 97.3407 119.681 89.8231 109.791 86.0449C105.355 84.353 105.439 86.8344 105.758 87.5457C106.077 88.257 109.596 88.9739 112.901 91.0414C116.157 93.0781 119.139 96.0672 121.43 99.6623C123.384 102.726 123.674 105.992 125.958 105.743Z" fill="var(--fill-0, #6F6C8B)" stroke="var(--stroke-0, #191919)" stroke-width="1.6238" stroke-linecap="round" stroke-linejoin="round"/>
</g>
<path id="Vector_24" d="M161.531 153.719C175.411 155.833 183.831 157.392 184.962 157.6C185.241 157.194 186.388 155.399 187.019 152.762C187.734 149.747 188.803 131.204 191.499 120.876C191.499 120.876 186.905 125.722 181.738 127.51C176.46 129.327 173.543 131.05 171.874 135.048C170.092 139.32 163.726 153.612 160.961 153.471C160.745 153.459 160.664 153.506 160.666 153.586C160.958 153.628 161.242 153.669 161.541 153.714L161.531 153.719Z" fill="var(--fill-0, #A57BEC)" stroke="var(--stroke-0, #191919)" stroke-width="1.6238" stroke-linecap="round" stroke-linejoin="round"/>
<path id="Vector_25" d="M11.6801 105.692C11.6801 105.692 23.8578 111.626 37.8053 118.743C50.9206 125.438 91.7987 144.616 120.13 149.589C139.92 153.061 145.488 152.942 161.865 155.4C176.316 157.566 184.67 159.124 184.67 159.124C184.67 159.124 185.327 160.088 184.536 162.784L180.393 176.909C180.393 176.909 179.509 180.34 176.863 179.942C174.218 179.544 161.92 177.892 148.008 173.633C136.864 170.221 132.883 171.589 120.112 167.679C111.03 164.898 64.114 150.06 38.5187 138.072C22.4731 130.557 11.5193 124.295 7.37215 121.27C5.03486 119.57 4.42502 117.33 4.61642 115.786C4.94058 113.26 8.1148 104.89 11.6896 105.687L11.6801 105.692Z" fill="var(--fill-0, white)" stroke="var(--stroke-0, #191919)" stroke-width="1.6238" stroke-linecap="round" stroke-linejoin="round"/>
<path id="Vector_26" d="M180.121 177.005L180.252 176.558C171.581 176.642 147.188 169.745 141.286 168.179C135.383 166.613 133.207 167.744 122.398 164.916C111.59 162.089 84.1692 153.088 79.8295 151.064C75.4823 149.037 64.9241 141.67 54.3883 136.195C43.8545 130.714 39.571 129.33 31.5298 125.081C23.5314 120.852 12.6883 115.064 5.8601 112.265C5.20751 113.845 4.77563 115.341 4.67426 116.184C4.47515 117.721 5.09057 119.955 7.42312 121.648C11.5619 124.66 22.4941 130.895 38.5087 138.376C64.0544 150.311 110.882 165.075 119.947 167.842C132.687 171.73 136.669 170.367 147.792 173.762C161.685 178.003 173.953 179.64 176.594 180.036C179.235 180.431 180.119 177.012 180.119 177.012L180.121 177.005Z" fill="var(--fill-0, white)" stroke="var(--stroke-0, #191919)" stroke-width="1.6238" stroke-linecap="round" stroke-linejoin="round"/>
</g>
<path id="Vector_27" d="M121.837 36.9533L130.639 51.9124L95.5327 53.1991L86.9171 37.2787L121.837 36.9533ZM116.905 43.4211C116.68 44.7288 117.844 46.1763 119.503 46.6525C121.162 47.1286 122.687 46.4522 122.911 45.1445C123.133 43.8341 121.971 42.3892 120.313 41.9131C118.654 41.437 117.127 42.1107 116.905 43.4211Z" fill="var(--fill-0, white)" stroke="var(--stroke-1, #191919)" stroke-width="1.6238" stroke-linecap="round" stroke-linejoin="round"/>
<path id="Vector_28" d="M152.23 57.6191C153.766 48.3945 149.174 43.0367 144.047 40.2475C136.752 36.2779 128.495 43.5515 122.307 43.8478" stroke="var(--stroke-0, #191919)" stroke-width="1.6238" stroke-linecap="round" stroke-linejoin="round"/>
</g>
</svg>
