<svg preserveAspectRatio="none" width="100%" height="100%" overflow="visible" style="display: block;" viewBox="0 0 221.51 65.1728" fill="none" xmlns="http://www.w3.org/2000/svg">
<g id="Swosh">
<path id="Vector" d="M134.967 25.8439C161.142 22.3393 195.251 12.6281 209.871 5.03226C212.318 3.76308 214.218 2.54676 215.444 1.43622C216.82 0.186271 221.35 5.16687 219.974 6.41682C213.29 12.4935 194.9 18.599 184.532 21.6999C168.225 26.5747 150.033 30.6226 135.866 32.5167C134.952 32.6417 133.99 31.0361 133.822 29.3727C133.654 27.7093 134.284 25.9401 134.971 25.8487L134.967 25.8439Z" fill="var(--fill-0, #9FD2DA)" stroke="var(--stroke-2, #008749)" stroke-width="1.92492" stroke-linecap="round" stroke-linejoin="round"/>
<path id="Vector_2" d="M3.40823 52.7986C30.3239 58.1926 67.728 58.9715 106.026 54.938C143.628 50.9814 176.771 43.0442 196.959 33.1696C198.628 32.3523 201.59 38.4001 199.916 39.2126C179.05 49.4237 145.085 57.5917 106.733 61.63C67.7857 65.7308 29.6411 64.9135 2.08577 59.3945C1.19612 59.2166 0.744077 57.4379 1.06628 55.8274C1.40771 54.1399 2.56186 52.6255 3.40823 52.7938V52.7986Z" fill="var(--fill-0, #9FD2DA)" stroke="var(--stroke-2, #008749)" stroke-width="1.92492" stroke-linecap="round" stroke-linejoin="round"/>
<path id="Vector_3" d="M200.062 39.1304C201.114 38.6021 201.289 36.8277 200.454 35.1671C199.619 33.5066 198.09 32.5887 197.038 33.117C195.987 33.6454 195.812 35.4198 196.647 37.0803C197.482 38.7409 199.011 39.6587 200.062 39.1304Z" fill="var(--fill-0, #CDECF1)" stroke="var(--stroke-0, #008749)" stroke-width="1.92492" stroke-linecap="round" stroke-linejoin="round"/>
<path id="Vector_4" d="M219.871 6.53964C220.776 5.78863 220.548 4.02026 219.361 2.58986C218.174 1.15945 216.477 0.608673 215.572 1.35969C214.666 2.1107 214.895 3.8791 216.082 5.30951C217.269 6.73991 218.965 7.29065 219.871 6.53964Z" fill="var(--fill-0, #CDECF1)" stroke="var(--stroke-0, #008749)" stroke-width="1.92492" stroke-linecap="round" stroke-linejoin="round"/>
</g>
</svg>
