<svg preserveAspectRatio="none" width="100%" height="100%" overflow="visible" style="display: block;" viewBox="0 0 88.1774 82.9104" fill="none" xmlns="http://www.w3.org/2000/svg">
<g id="Swosh">
<path id="Vector" d="M85.1636 55.817C83.4068 46.6699 75.4072 37.1836 61.2813 27.5134C47.4888 18.0774 27.9968 8.66307 6.3937 1.00495C5.59848 0.722288 4.39751 1.90081 3.86661 3.38426C3.27675 5.04269 3.4461 7.06372 4.33162 7.38003C25.4379 14.8579 44.4141 24.0091 57.7659 33.1474C77.1062 46.3854 79.9403 56.066 78.9173 61.8557C77.8634 67.8123 65.2024 72.4051 45.05 74.1427C43.2826 74.2949 43.8101 81.0041 45.5775 80.8519C70.1786 78.7282 83.522 72.7513 85.2367 63.0895C85.6643 60.6956 85.6386 58.2682 85.168 55.8221L85.1636 55.817Z" fill="var(--fill-0, #9FD2DA)" stroke="var(--stroke-2, #008749)" stroke-width="1.92492" stroke-linecap="round" stroke-linejoin="round"/>
<path id="Vector_2" d="M43.295 77.6829C43.1343 75.832 43.9106 74.2452 45.0289 74.1387C46.1472 74.0322 47.184 75.4463 47.3447 77.2973C47.5054 79.1482 46.7292 80.7351 45.6109 80.8416C44.4925 80.948 43.4557 79.5339 43.295 77.6829Z" fill="var(--fill-0, #CDECF1)" stroke="var(--stroke-0, #008749)" stroke-width="1.92492" stroke-linecap="round" stroke-linejoin="round"/>
</g>
</svg>
