<svg width="40" height="40" viewBox="0 0 40 40" fill="none" xmlns="http://www.w3.org/2000/svg">
<path d="M20 0.5C24.7282 0.5 28.2242 0.500732 30.9062 0.861328C33.5739 1.21999 35.3617 1.92616 36.7178 3.28223C38.0738 4.63829 38.78 6.42612 39.1387 9.09375C39.4993 11.7758 39.5 15.2718 39.5 20C39.5 24.7282 39.4993 28.2242 39.1387 30.9062C38.78 33.5739 38.0738 35.3617 36.7178 36.7178C35.3617 38.0738 33.5739 38.78 30.9062 39.1387C28.2242 39.4993 24.7282 39.5 20 39.5C15.2718 39.5 11.7758 39.4993 9.09375 39.1387C6.42612 38.78 4.63829 38.0738 3.28223 36.7178C1.92616 35.3617 1.21999 33.5739 0.861328 30.9062C0.500732 28.2242 0.5 24.7282 0.5 20C0.5 15.2718 0.500732 11.7758 0.861328 9.09375C1.21999 6.42612 1.92616 4.63829 3.28223 3.28223C4.63829 1.92616 6.42612 1.21999 9.09375 0.861328C11.7758 0.500732 15.2718 0.5 20 0.5Z" stroke="white"/>
<path fill-rule="evenodd" clip-rule="evenodd" d="M17.2929 12.2929C17.6834 11.9024 18.3165 11.9024 18.707 12.2929C19.0974 12.6834 19.0974 13.3164 18.707 13.7069L13.414 18.9999H28.9999C29.5521 19 29.9999 19.4477 29.9999 19.9999C29.9999 20.5521 29.5521 20.9998 28.9999 20.9999H13.414L18.707 26.2929C19.0974 26.6834 19.0974 27.3164 18.707 27.7069C18.3165 28.0974 17.6834 28.0974 17.2929 27.7069L10.2929 20.7069C9.90237 20.3164 9.90237 19.6834 10.2929 19.2929L17.2929 12.2929Z" fill="white"/>
</svg>
